<svg xmlns="http://www.w3.org/2000/svg" xmlns:xlink="http://www.w3.org/1999/xlink" width="500" zoomAndPan="magnify" viewBox="0 0 375 374.999991" height="500" preserveAspectRatio="xMidYMid meet" version="1.0"><rect x="-37.5" width="450" fill="#ffffff" y="-37.499999" height="449.999989" fill-opacity="1"/><rect x="-37.5" width="450" fill="#ffffff" y="-37.499999" height="449.999989" fill-opacity="1"/><rect x="-37.5" width="450" fill="#ffffff" y="-37.499999" height="449.999989" fill-opacity="1"/><path fill="#000000" d="M 194.429688 375 C 194.382812 375 194.34375 375 194.304688 375 C 192.03125 374.929688 190.246094 373.03125 190.304688 370.765625 C 190.992188 347.523438 172.800781 339.597656 149.773438 329.5625 C 146.992188 328.351562 144.175781 327.121094 141.347656 325.847656 C 114.300781 313.636719 96.984375 299.371094 100.414062 269.414062 C 103.449219 242.847656 128.921875 215.550781 142.601562 200.882812 C 145.035156 198.273438 147.066406 196.101562 148.464844 194.453125 C 169.171875 170.132812 232.175781 96.121094 241.007812 66.6875 C 250.101562 36.386719 241.105469 6.03125 241.011719 5.726562 C 240.355469 3.550781 241.582031 1.25 243.757812 0.59375 C 245.9375 -0.0898438 248.230469 1.152344 248.890625 3.324219 C 249.300781 4.65625 258.730469 36.300781 248.898438 69.050781 C 242.527344 90.257812 212.613281 131.804688 154.738281 199.792969 C 153.28125 201.503906 151.164062 203.777344 148.628906 206.496094 C 135.589844 220.472656 111.320312 246.480469 108.589844 270.351562 C 105.710938 295.550781 119.660156 307.03125 144.730469 318.347656 C 147.53125 319.609375 150.316406 320.824219 153.0625 322.023438 C 176.882812 332.398438 199.382812 342.203125 198.539062 371.007812 C 198.472656 373.234375 196.644531 375 194.429688 375 Z M 194.429688 375 " fill-opacity="1" fill-rule="nonzero"/><path fill="#000000" d="M 215.191406 347.179688 C 213.058594 347.179688 211.257812 345.542969 211.089844 343.382812 C 210.914062 341.113281 212.613281 339.136719 214.878906 338.960938 C 215.257812 338.933594 252.839844 335.75 262.371094 313.222656 C 269.082031 297.375 260.78125 275.253906 237.71875 247.46875 C 236.265625 245.71875 236.507812 243.121094 238.257812 241.671875 C 240.007812 240.214844 242.609375 240.460938 244.054688 242.210938 C 269.257812 272.566406 277.96875 297.542969 269.949219 316.457031 C 258.441406 343.589844 217.257812 347.039062 215.507812 347.167969 C 215.398438 347.175781 215.292969 347.179688 215.191406 347.179688 Z M 215.191406 347.179688 " fill-opacity="1" fill-rule="nonzero"/><path fill="#000000" d="M 208.765625 332.417969 C 206.730469 332.417969 204.964844 330.914062 204.6875 328.847656 C 204.496094 327.394531 205.082031 326.019531 206.125 325.148438 C 205.183594 324.425781 203.753906 323.46875 201.601562 322.253906 C 197.132812 319.730469 192.457031 317.527344 187.910156 315.695312 C 188.042969 316.125 188.109375 316.789062 188.097656 317.261719 C 188.042969 319.496094 186.207031 321.488281 183.984375 321.488281 C 183.949219 321.488281 183.910156 321.488281 183.882812 321.488281 C 170.980469 321.488281 154.96875 319.253906 151.933594 312.996094 C 150.871094 310.800781 151.1875 308.195312 152.808594 306.042969 C 161.710938 294.179688 194.777344 309 205.660156 315.144531 C 211.25 318.300781 216.832031 322.167969 215.875 327.128906 C 215.226562 330.46875 211.9375 332.046875 209.316406 332.394531 C 209.132812 332.421875 208.945312 332.417969 208.765625 332.417969 Z M 161.183594 309.886719 C 164.683594 311.078125 171.710938 312.148438 179.261719 312.613281 C 171.238281 310.113281 164.46875 309.09375 161.183594 309.886719 Z M 161.183594 309.886719 " fill-opacity="1" fill-rule="nonzero"/></svg>